<?xml version="1.0" encoding="UTF-8"?><svg id="Layer_1_copy" xmlns="http://www.w3.org/2000/svg" width="2in" height="2in" viewBox="0 0 144 144"><path d="m72,55.22c7.25-5.27,16.17-8.39,25.82-8.39,6.7,0,13.05,1.51,18.74,4.19-1.13-23.28-20.36-41.8-43.92-41.8S30.19,27.43,28.76,50.43c5.34-2.31,11.23-3.59,17.42-3.59,9.65,0,18.57,3.12,25.82,8.39Z" fill="#40c4ea"/><path d="m116.56,51.02c.03.72.05,1.44.05,2.17,0,18.1-10.93,33.63-26.55,40.38-.84,13.49-7.76,25.33-18.06,32.82,7.25,5.27,16.17,8.39,25.82,8.39,24.29,0,43.97-19.69,43.97-43.97,0-17.58-10.32-32.75-25.24-39.79Z" fill="#ed1d75"/><path d="m72,55.22c11,7.99,18.15,20.95,18.15,35.59,0,.93-.04,1.85-.1,2.77,15.62-6.75,26.55-22.28,26.55-40.38,0-.73-.02-1.45-.05-2.17-5.69-2.68-12.03-4.19-18.74-4.19-9.65,0-18.57,3.12-25.82,8.39Z" fill="#2c2a6e"/><path d="m53.9,92.98c-14.91-7.04-25.24-22.2-25.24-39.79,0-.93.04-1.85.1-2.77-15.62,6.75-26.55,22.28-26.55,40.38,0,24.29,19.69,43.97,43.97,43.97,9.65,0,18.57-3.12,25.82-8.39-10.45-7.6-17.43-19.67-18.1-33.41Z" fill="#fac03a"/><path d="m53.9,92.98c-.04-.72-.05-1.44-.05-2.17,0-14.64,7.16-27.59,18.15-35.59-7.25-5.27-16.17-8.39-25.82-8.39-6.19,0-12.08,1.29-17.42,3.59-.06.92-.1,1.84-.1,2.77,0,17.58,10.32,32.75,25.24,39.79Z" fill="#2c2a6e"/><path d="m90.06,93.57c-5.34,2.31-11.23,3.59-17.42,3.59-6.7,0-13.05-1.51-18.74-4.19.67,13.74,7.65,25.82,18.1,33.41,10.3-7.49,17.22-19.33,18.06-32.82Z" fill="#2c2a6e"/><path d="m72,55.22c-11,7.99-18.15,20.95-18.15,35.59,0,.73.02,1.45.05,2.17,5.68,2.68,12.03,4.19,18.74,4.19,6.19,0,12.08-1.29,17.42-3.59.06-.92.1-1.84.1-2.77,0-14.64-7.16-27.59-18.15-35.59Z" fill="#2c2a6e"/></svg>