<svg width="376" height="376" viewBox="0 0 376 376" fill="none" xmlns="http://www.w3.org/2000/svg">
<path d="M187.82 375.64C290.998 375.64 374.64 291.998 374.64 188.82C374.64 85.6422 290.998 2 187.82 2C84.6422 2 1 85.6422 1 188.82C1 291.998 84.6422 375.64 187.82 375.64Z" fill="white"/>
<path d="M187.56 0.0898438C84.0198 0.0898438 0.0898438 84.0199 0.0898438 187.55C0.0898438 281.24 68.8198 358.88 158.61 372.79V240.96H110.54V187.55H158.61C158.61 187.55 140.12 73.3298 222.09 73.3298C252.5 73.3298 271.33 77.0898 270.88 77.0898L270.99 123.06H243.58C243.58 123.06 216.66 123.3 216.66 154.59V187.55H269.29L260.8 241.66H216.9V372.73C306.49 358.64 375.01 281.1 375.01 187.55C375.02 84.0199 291.09 0.0898438 187.56 0.0898438Z" fill="#3DC4EA"/>
<path d="M158.7 372.9L158.6 372.88C114.85 366.1 74.73 343.82 45.61 310.14C31.19 293.46 19.93 274.61 12.15 254.09C4.09 232.85 0 210.47 0 187.55C0 162.23 4.96 137.67 14.74 114.55C24.19 92.22 37.71 72.16 54.93 54.93C72.15 37.71 92.21 24.18 114.55 14.74C137.67 4.96 162.23 0 187.55 0C212.87 0 237.43 4.96 260.55 14.74C282.88 24.19 302.94 37.71 320.17 54.93C337.39 72.15 350.92 92.21 360.36 114.55C370.14 137.67 375.1 162.23 375.1 187.55C375.1 210.44 371.03 232.79 362.99 254C355.23 274.49 344 293.33 329.62 309.99C300.6 343.64 260.57 365.95 216.92 372.81L216.82 372.83V241.57H260.73L269.19 187.64H216.58V154.59C216.58 147.44 218 141.33 220.8 136.42C223.04 132.49 226.16 129.33 230.09 127.02C236.76 123.08 243.53 122.98 243.59 122.98H270.91L270.8 77.15C269.43 76.76 250.29 73.42 222.1 73.42C202.65 73.42 187.25 79.92 176.34 92.74C170.02 100.16 165.16 109.76 161.9 121.27C159.29 130.48 157.68 140.93 157.14 152.33C156.2 171.74 158.69 187.38 158.71 187.53L158.73 187.63H110.64V240.86H158.71V372.88L158.7 372.9ZM187.56 0.18C162.26 0.18 137.73 5.13 114.62 14.91C92.31 24.35 72.27 37.86 55.06 55.07C37.85 72.28 24.34 92.32 14.9 114.63C5.13 137.73 0.17 162.27 0.17 187.57C0.17 210.47 4.25 232.84 12.31 254.05C20.09 274.55 31.34 293.39 45.74 310.05C74.8 343.67 114.85 365.92 158.52 372.71V241.05H110.45V187.46H158.51C158.3 186.08 156.05 170.93 156.95 152.33C157.5 140.92 159.1 130.45 161.72 121.23C164.99 109.69 169.86 100.07 176.2 92.63C187.15 79.77 202.59 73.24 222.1 73.24C237.71 73.24 250.12 74.25 257.78 75.09C262.23 75.58 265.53 76.06 267.51 76.38C269.87 76.76 270.63 76.92 270.87 77H270.89C270.99 77.04 270.99 77.07 270.99 77.09V77.18L271.09 123.15H243.6C243.53 123.15 236.81 123.26 230.18 127.17C226.29 129.47 223.19 132.61 220.96 136.51C218.18 141.39 216.77 147.47 216.77 154.59V187.46H269.41L269.39 187.56L260.89 241.74H217.01V372.62C260.58 365.74 300.53 343.46 329.5 309.87C343.86 293.22 355.08 274.4 362.84 253.93C370.87 232.74 374.94 210.41 374.94 187.54C374.94 162.24 369.99 137.71 360.22 114.6C350.78 92.29 337.27 72.25 320.06 55.04C302.85 37.83 282.81 24.32 260.5 14.88C237.4 5.11 212.86 0.15 187.56 0.15V0.18Z" fill="white"/>
</svg>
