<svg width="375" height="375" viewBox="0 0 375 375" fill="none" xmlns="http://www.w3.org/2000/svg">
<path d="M187.15 374.3C290.51 374.3 374.3 290.51 374.3 187.15C374.3 83.7899 290.51 0 187.15 0C83.7899 0 0 83.7899 0 187.15C0 290.51 83.7899 374.3 187.15 374.3Z" fill="#EC1A74"/>
<path d="M241.05 312.88H133.25C94.3201 312.88 62.6401 281.2 62.6401 242.27V134.47C62.6401 95.5404 94.3201 63.8604 133.25 63.8604H241.05C279.98 63.8604 311.66 95.5404 311.66 134.47V242.27C311.66 281.2 279.98 312.88 241.05 312.88ZM133.25 88.0603C107.66 88.0603 86.8401 108.88 86.8401 134.47V242.27C86.8401 267.86 107.66 288.68 133.25 288.68H241.05C266.64 288.68 287.46 267.86 287.46 242.27V134.47C287.46 108.88 266.64 88.0603 241.05 88.0603H133.25Z" fill="white"/>
<path d="M187.15 252.65C151.71 252.65 122.87 223.82 122.87 188.37C122.87 152.92 151.71 124.09 187.15 124.09C222.59 124.09 251.43 152.93 251.43 188.37C251.43 223.81 222.59 252.65 187.15 252.65ZM187.15 148.46C165.14 148.46 147.24 166.37 147.24 188.37C147.24 210.37 165.15 228.28 187.15 228.28C209.15 228.28 227.06 210.38 227.06 188.37C227.06 166.36 209.15 148.46 187.15 148.46Z" fill="white"/>
</svg>
