<svg width="374" height="374" viewBox="0 0 374 374" fill="none" xmlns="http://www.w3.org/2000/svg">
<path d="M186.82 373.64C289.998 373.64 373.64 289.998 373.64 186.82C373.64 83.6422 289.998 0 186.82 0C83.6422 0 0 83.6422 0 186.82C0 289.998 83.6422 373.64 186.82 373.64Z" fill="#FCC13A"/>
<path d="M160.29 197.56V160.49C160.29 160.49 126.69 154.38 99.0803 186.9C83.6303 205.1 77.2203 229.42 82.5203 252.7C89.8103 284.66 115.95 303.45 128.29 306.82C149.17 314.21 209.06 320.09 231.3 251.41V133.57C231.3 133.57 243.4 163.23 292.95 163.23V121.87C292.95 121.87 236.37 116.21 232.86 62.5596H195.79V235.6C195.79 235.6 198.67 253.38 181.06 266.08C168.29 275.29 151.39 276.83 137.38 269.65C119.17 260.32 113.04 240.22 120.09 220.38C132.77 192.58 160.28 197.55 160.28 197.55L160.29 197.56Z" fill="white"/>
</svg>
