<svg width="374" height="374" viewBox="0 0 374 374" fill="none" xmlns="http://www.w3.org/2000/svg">
<path d="M186.82 373.64C289.998 373.64 373.64 289.998 373.64 186.82C373.64 83.6422 289.998 0 186.82 0C83.6422 0 0 83.6422 0 186.82C0 289.998 83.6422 373.64 186.82 373.64Z" fill="white"/>
<path d="M279.01 114.37C279.01 114.37 259.88 91.39 229.92 100.86C218.29 104.54 208.51 112.44 201.79 122.62C187.26 144.63 196.77 158.84 196.43 159.52C193.99 160.13 133.28 160.48 94.7099 107.58C94.7099 107.58 72.4899 144.82 108.99 172.81C108.99 173.87 109.05 173.21 108.97 173.42C108.89 173.63 96.1799 174.99 88.0199 168.55C92.8399 202.81 102.98 207 126.05 217.49C124.42 220.4 107.29 218.42 105.54 218.19C103.56 217.72 113.23 248.09 150.86 252.97C122.98 269 113.57 275.62 79.4199 273.88C82.2499 275.87 135.94 316.44 218.81 279.8C286.29 237.72 295.13 175.26 292.69 147.73C292.69 147.73 313.61 131.16 315.73 122.53C290.61 129.15 291.24 128.65 289.61 128.65C301.63 118.64 309.48 109.41 309.35 103.16C292.93 110.64 290.67 113.86 279 114.38L279.01 114.37Z" fill="#221F71"/>
</svg>
