<?xml version="1.0" encoding="UTF-8"?><svg id="Layer_1_copy" xmlns="http://www.w3.org/2000/svg" width="2in" height="2in" viewBox="0 0 144 144"><path d="m50.03,58.54c-4.57-7.54-12.82-12.59-22.28-12.59-14.39,0-26.05,11.66-26.05,26.05s11.66,26.05,26.05,26.05c9.46,0,17.71-5.06,22.28-12.59-2.38-3.93-3.78-8.53-3.78-13.46s1.4-9.53,3.78-13.46Z" fill="#40c4ea"/><path d="m94.28,58.03c-4.62-7.26-12.72-12.09-21.97-12.09s-17.71,5.06-22.28,12.59c2.38,3.93,3.78,8.53,3.78,13.46s-1.4,9.53-3.78,13.46c4.57,7.54,12.82,12.59,22.28,12.59s17.34-4.83,21.97-12.09c-2.57-4.04-4.08-8.82-4.08-13.97s1.51-9.93,4.08-13.97Z" fill="#ed1d75"/><path d="m50.03,58.54c-2.38,3.93-3.78,8.53-3.78,13.46s1.4,9.53,3.78,13.46c2.38-3.93,3.78-8.53,3.78-13.46s-1.4-9.53-3.78-13.46Z" fill="#2c2a6e"/><path d="m116.25,45.95c-9.24,0-17.34,4.83-21.97,12.09,2.57,4.04,4.08,8.82,4.08,13.97s-1.51,9.93-4.08,13.97c4.62,7.26,12.72,12.09,21.97,12.09,14.39,0,26.05-11.66,26.05-26.05s-11.66-26.05-26.05-26.05Z" fill="#fac03a"/><path d="m94.28,58.03c-2.57,4.04-4.08,8.82-4.08,13.97s1.51,9.93,4.08,13.97c2.57-4.04,4.08-8.82,4.08-13.97s-1.51-9.93-4.08-13.97Z" fill="#2c2a6e"/></svg>