<?xml version="1.0" encoding="UTF-8"?><svg id="Layer_1" xmlns="http://www.w3.org/2000/svg" width="3.14in" height=".63in" viewBox="0 0 226.08 45.12"><path d="m78.99,32.44c-.07-.13-.14-.26-.2-.39h.01c.07.13.13.26.19.39Z" fill="#fff"/><path d="m71.89,29.76c0,7.52-5.78,13.69-13.14,14.32-.67.06-1.24-.51-1.24-1.18v-15.54c-4.3-2.48-7.19-7.13-7.19-12.46,0-7.52,5.78-13.69,13.14-14.32.67-.06,1.24.51,1.24,1.18v15.54c4.3,2.48,7.19,7.14,7.19,12.46Z" fill="#fff"/><path d="m13.54,43.41c.38.79-.18,1.71-1.07,1.71H1.19c-.65,0-1.19-.53-1.19-1.19V1.76C0,1.09.58.52,1.25.58c7.36.63,13.14,6.8,13.14,14.32,0,5.85-3.49,10.89-8.51,13.13l7.66,15.38Z" fill="#fff"/><path d="m46.66,18.73v8.2c0,.65-.53,1.18-1.19,1.18h-24.91c-.66,0-1.19-.53-1.19-1.18v-8.2c0-.65.53-1.18,1.19-1.18h24.91c.66,0,1.19.53,1.19,1.18Z" fill="#fff"/><rect x="19.38" y="34.56" width="27.28" height="10.56" rx="1.19" ry="1.19" fill="#fff"/><rect x="19.38" y=".52" width="27.28" height="10.56" rx="1.19" ry="1.19" fill="#fff"/><rect x="198.81" y="17.55" width="27.27" height="10.55" rx="1.18" ry="1.18" fill="#fff"/><path d="m226.08,35.74v8.19c0,.66-.53,1.19-1.18,1.19h-24.92c-.65,0-1.18-.53-1.18-1.19v-8.19c0-.66.53-1.19,1.18-1.19h24.92c.65,0,1.18.53,1.18,1.19Z" fill="#fff"/><path d="m226.08,1.71v8.19c0,.66-.53,1.19-1.18,1.19h-24.92c-.65,0-1.18-.53-1.18-1.19V1.71c0-.66.53-1.19,1.18-1.19h24.92c.65,0,1.18.53,1.18,1.19Z" fill="#fff"/><path d="m153.91,34.76v8.19c0,.66-.54,1.19-1.18,1.19h-24.92c-.65,0-1.18-.53-1.18-1.19V1.71c0-.66.53-1.19,1.18-1.19h8.2c.65,0,1.18.53,1.18,1.19v31.86h15.54c.64,0,1.18.53,1.18,1.19Z" fill="#fff"/><path d="m195.27,2.45c-.04.08-.08.15-.13.23l-10.41,18.12-1.13,1.97-11.28,19.65c-.11.19-.25.33-.41.42-.02.01-.03.01-.03.01-.07.05-.14.07-.2.1-.51.17-1.1,0-1.41-.53l-8.36-14.41-6.5-11.19-8.36-14.4c-.31-.53-.17-1.12.24-1.48.05-.05.12-.1.18-.14,0,0,0,0,.02,0,.17-.1.36-.15.58-.15l22.65-.05h2.28s20.89-.06,20.89-.06c.09,0,.18,0,.26,0,.44.01.75.12.96.29.06.06.12.13.15.19.03.04.04.07.06.12.24.26.27.75-.05,1.32Z" fill="#fff"/><path d="m145.23,10.11l-.22-.36c-.2-.33.02-.8.42-1.13-.4.37-.52.96-.21,1.49Z" fill="#fff"/><path d="m113.93,6.47c-3.99-4-9.51-6.47-15.61-6.47-12.18,0-22.06,9.88-22.06,22.07,0,6.09,2.47,11.61,6.46,15.6,3.99,4,9.51,6.47,15.6,6.47,12.19,0,22.07-9.88,22.07-22.07,0-6.09-2.47-11.61-6.46-15.6Zm-35.14,25.58h.01c.07.13.13.26.19.39-.07-.13-.14-.26-.2-.39Z" fill="#fff"/><path d="m78.99,32.44c-.07-.13-.14-.26-.2-.39h.01c.07.13.13.26.19.39Z" fill="#fff"/></svg>